<svg
   xmlns:dc="http://purl.org/dc/elements/1.1/"
   xmlns:cc="http://creativecommons.org/ns#"
   xmlns:rdf="http://www.w3.org/1999/02/22-rdf-syntax-ns#"
   xmlns:svg="http://www.w3.org/2000/svg"
   xmlns="http://www.w3.org/2000/svg"
   width="170.22943"
   height="80.305145"
   viewBox="0 0 45.039869 21.247402"
   version="1.1"
   id="svg8">
  
  <g
     transform="translate(-33.007825,-215.33602)"
     id="g1062" />
  <path
     id="rect1178-7-85-0"
     transform="scale(0.26458332)"
     d="M 0.6640625 0 A 0.66586273 0.66586273 0 0 0 0 0.6640625 L 0 79.636719 A 0.66586273 0.66586273 0 0 0 0.6640625 80.306641 L 85.113281 80.306641 L 169.5625 80.306641 C 169.93199 80.305828 170.22983 80.006186 170.22656 79.636719 L 170.22656 0.6640625 C 170.22767 0.64192959 170.22767 0.61978814 170.22656 0.59765625 C 170.19165 0.25723846 169.9047 -0.0010175552 169.5625 0 L 85.113281 0 L 0.6640625 0 z M 1.328125 1.328125 L 84.449219 1.328125 L 84.449219 78.970703 L 1.328125 78.970703 L 1.328125 1.328125 z M 99.337891 13.892578 L 107.14062 13.892578 C 107.46329 13.893774 107.76609 14.05153 107.95312 14.314453 L 127.33789 41.515625 L 146.72266 14.314453 C 146.91121 14.049407 147.21574 13.891385 147.54102 13.892578 L 155.33789 13.892578 C 155.89301 13.890986 156.34339 14.341367 156.3418 14.896484 L 156.3418 17.894531 C 156.34263 18.103414 156.27712 18.30619 156.15625 18.476562 L 148.35352 29.410156 L 132.05469 52.285156 C 131.86765 52.54809 131.56485 52.705837 131.24219 52.707031 L 123.43945 52.707031 C 123.11679 52.705837 122.81596 52.548098 122.62891 52.285156 L 108.13672 31.957031 L 108.13672 65.410156 C 108.13831 65.962391 107.69286 66.411577 107.14062 66.414062 L 99.337891 66.414062 C 98.782772 66.415654 98.332393 65.965274 98.333984 65.410156 L 98.333984 14.896484 C 98.332393 14.341367 98.782772 13.890986 99.337891 13.892578 z M 155.30664 27.962891 C 155.87035 27.94464 156.33955 28.394986 156.3418 28.958984 L 156.3418 65.410156 C 156.34339 65.965274 155.89301 66.415654 155.33789 66.414062 L 147.54102 66.414062 C 146.9859 66.415654 146.53552 65.965274 146.53711 65.410156 L 146.53711 39.898438 C 146.53628 39.689554 146.60179 39.486787 146.72266 39.316406 L 154.52539 28.382812 C 154.70629 28.128159 154.99445 27.973398 155.30664 27.962891 z "
     style="color:#17a2b8;font-style:normal;font-variant:normal;font-weight:normal;font-stretch:normal;font-size:medium;line-height:normal;font-family:sans-serif;font-variant-ligatures:normal;font-variant-position:normal;font-variant-caps:normal;font-variant-numeric:normal;font-variant-alternates:normal;font-feature-settings:normal;text-indent:0;text-align:start;text-decoration:none;text-decoration-line:none;text-decoration-style:solid;text-decoration-color:#17a2b8;letter-spacing:normal;word-spacing:normal;text-transform:none;writing-mode:lr-tb;direction:ltr;text-orientation:mixed;dominant-baseline:auto;baseline-shift:baseline;text-anchor:start;white-space:normal;shape-padding:0;clip-rule:nonzero;display:inline;overflow:visible;visibility:visible;opacity:1;isolation:auto;mix-blend-mode:normal;color-interpolation:sRGB;color-interpolation-filters:linearRGB;solid-color:#17a2b8;solid-opacity:1;vector-effect:none;fill:#17a2b8;fill-opacity:1;fill-rule:nonzero;stroke:none;stroke-width:1.33159232;stroke-linecap:butt;stroke-linejoin:round;stroke-miterlimit:4;stroke-dasharray:none;stroke-dashoffset:0;stroke-opacity:1;paint-order:normal;color-rendering:auto;image-rendering:auto;shape-rendering:auto;text-rendering:auto;enable-background:accumulate" />
  <path
     id="rect1762-6-2-0-08-4"
     d="m 16.693359,3.6757812 c -0.146875,-4.213e-4 -0.266046,0.1187502 -0.265625,0.265625 V 12.791016 L 12.595703,7.4140625 C 12.545815,7.3439357 12.464967,7.3024188 12.378906,7.3027344 h -2.0625 c -0.08606,-3.156e-4 -0.166909,0.041201 -0.216797,0.1113281 l -4.3124996,6.0507815 -2.0625,2.894531 c -0.03267,0.04484 -0.050432,0.09881 -0.050781,0.154297 v 0.792969 c -4.213e-4,0.146875 0.1187502,0.266046 0.265625,0.265625 h 2.0644528 c 0.085371,-3.16e-4 0.1653559,-0.04176 0.2148438,-0.111328 l 5.128906,-7.197266 5.128906,7.197266 c 0.04989,0.07013 0.130736,0.111644 0.216797,0.111328 h 2.0625 c 0.146875,4.21e-4 0.266046,-0.11875 0.265625,-0.265625 V 3.9414062 c 4.21e-4,-0.1468748 -0.11875,-0.2660463 -0.265625,-0.265625 z"
     style="color:#17a2b8;font-style:normal;font-variant:normal;font-weight:normal;font-stretch:normal;font-size:medium;line-height:normal;font-family:sans-serif;font-variant-ligatures:normal;font-variant-position:normal;font-variant-caps:normal;font-variant-numeric:normal;font-variant-alternates:normal;font-feature-settings:normal;text-indent:0;text-align:start;text-decoration:none;text-decoration-line:none;text-decoration-style:solid;text-decoration-color:#17a2b8;letter-spacing:normal;word-spacing:normal;text-transform:none;writing-mode:lr-tb;direction:ltr;text-orientation:mixed;dominant-baseline:auto;baseline-shift:baseline;text-anchor:start;white-space:normal;shape-padding:0;clip-rule:nonzero;display:inline;overflow:visible;visibility:visible;opacity:1;isolation:auto;mix-blend-mode:normal;color-interpolation:sRGB;color-interpolation-filters:linearRGB;solid-color:#17a2b8;solid-opacity:1;vector-effect:none;fill:#17a2b8;fill-opacity:1;fill-rule:nonzero;stroke:none;stroke-width:0.52967978;stroke-linecap:square;stroke-linejoin:round;stroke-miterlimit:0;stroke-dasharray:none;stroke-dashoffset:0;stroke-opacity:1;paint-order:normal;color-rendering:auto;image-rendering:auto;shape-rendering:auto;text-rendering:auto;enable-background:accumulate" />
  <path
     id="rect1762-2-2"
     d="M 3.9394531,3.6757812 C 3.7925783,3.6753599 3.6734068,3.7945314 3.6738281,3.9414062 v 9.6425778 c -4.36e-4,0.257964 0.3306284,0.364282 0.4804688,0.154297 L 6.21875,10.84375 c 0.031975,-0.04508 0.049048,-0.09903 0.048828,-0.154297 V 3.9414062 C 6.267998,3.7952939 6.1500176,3.6764396 6.0039062,3.6757812 Z"
     style="color:#17a2b8;font-style:normal;font-variant:normal;font-weight:normal;font-stretch:normal;font-size:medium;line-height:normal;font-family:sans-serif;font-variant-ligatures:normal;font-variant-position:normal;font-variant-caps:normal;font-variant-numeric:normal;font-variant-alternates:normal;font-feature-settings:normal;text-indent:0;text-align:start;text-decoration:none;text-decoration-line:none;text-decoration-style:solid;text-decoration-color:#17a2b8;letter-spacing:normal;word-spacing:normal;text-transform:none;writing-mode:lr-tb;direction:ltr;text-orientation:mixed;dominant-baseline:auto;baseline-shift:baseline;text-anchor:start;white-space:normal;shape-padding:0;clip-rule:nonzero;display:inline;overflow:visible;visibility:visible;opacity:1;isolation:auto;mix-blend-mode:normal;color-interpolation:sRGB;color-interpolation-filters:linearRGB;solid-color:#17a2b8;solid-opacity:1;vector-effect:none;fill:#17a2b8;fill-opacity:1;fill-rule:nonzero;stroke:none;stroke-width:0.52967978;stroke-linecap:square;stroke-linejoin:round;stroke-miterlimit:0;stroke-dasharray:none;stroke-dashoffset:0;stroke-opacity:1;paint-order:normal;color-rendering:auto;image-rendering:auto;shape-rendering:auto;text-rendering:auto;enable-background:accumulate" />
</svg>
